<svg xmlns="http://www.w3.org/2000/svg" version="1.1" xmlns:xlink="http://www.w3.org/1999/xlink" xmlns:svgjs="http://svgjs.dev/svgjs" width="1440" height="650" preserveAspectRatio="none" viewBox="0 0 1440 650"><g mask="url(&quot;#SvgjsMask1257&quot;)" fill="none"><path d="M -509.555595828685,507 C -437.56,458.2 -293.56,275.8 -149.55559582868503,263 C -5.56,250.2 66.44,467 210.44440417131497,443 C 354.44,419 426.44,136.6 570.444404171315,143 C 714.44,149.4 786.44,473.2 930.444404171315,475 C 1074.44,476.8 1188.53,174 1290.444404171315,152 C 1392.36,130 1410.09,322.4 1440,365" stroke="rgba(153, 153, 153, 1)" stroke-width="2"></path><path d="M -317.32316541000597,132 C -245.32,196.4 -101.32,438 42.67683458999404,454 C 186.68,470 258.68,203.8 402.67683458999403,212 C 546.68,220.2 618.68,479.8 762.6768345899941,495 C 906.68,510.2 978.68,303.2 1122.676834589994,288 C 1266.68,272.8 1419.21,418.2 1482.676834589994,419 C 1546.14,419.8 1448.54,317.4 1440,292" stroke="rgba(153, 153, 153, 1)" stroke-width="2"></path></g><defs><mask id="SvgjsMask1257"><rect width="1440" height="650" fill="#ffffff"></rect></mask></defs></svg>