<svg xmlns="http://www.w3.org/2000/svg" version="1.1" xmlns:xlink="http://www.w3.org/1999/xlink" xmlns:svgjs="http://svgjs.dev/svgjs" width="1440" height="650" preserveAspectRatio="none" viewBox="0 0 1440 650"><g mask="url(&quot;#SvgjsMask1137&quot;)" fill="none"><path d="M -366.9748643508634,393 C -270.97,358 -78.97,221.8 113.02513564913656,218 C 305.03,214.2 401.03,359.8 593.0251356491366,374 C 785.03,388.2 881.03,266.4 1073.0251356491365,289 C 1265.03,311.6 1479.63,485.2 1553.0251356491365,487 C 1626.42,488.8 1462.61,335.8 1440,298" stroke="rgba(153, 153, 153, 1)" stroke-width="2"></path><path d="M -78.1268129449216,248 C 17.87,295.8 209.87,485.8 401.8731870550784,487 C 593.87,488.2 689.87,259.4 881.8731870550785,254 C 1073.87,248.6 1169.87,457.2 1361.8731870550785,460 C 1553.87,462.8 1826.25,272.8 1841.8731870550785,268 C 1857.5,263.2 1520.37,402.4 1440,436" stroke="rgba(153, 153, 153, 1)" stroke-width="2"></path><path d="M -803.6411873309085,388 C -707.64,374.4 -515.64,300.2 -323.6411873309084,320 C -131.64,339.8 -35.64,509.6 156.3588126690916,487 C 348.36,464.4 444.36,220.8 636.3588126690915,207 C 828.36,193.2 955.63,411.8 1116.3588126690915,418 C 1277.09,424.2 1375.27,274 1440,238" stroke="rgba(153, 153, 153, 1)" stroke-width="2"></path><path d="M -20.908565295519452,409 C 75.09,361.2 267.09,175.4 459.09143470448055,170 C 651.09,164.6 747.09,380.2 939.0914347044805,382 C 1131.09,383.8 1227.09,171.8 1419.0914347044804,179 C 1611.09,186.2 1894.91,410.4 1899.0914347044804,418 C 1903.27,425.6 1531.82,257.2 1440,217" stroke="rgba(153, 153, 153, 1)" stroke-width="2"></path><path d="M -254.64222518911595,443 C -158.64,400 33.36,232.2 225.35777481088405,228 C 417.36,223.8 513.36,417.4 705.357774810884,422 C 897.36,426.6 993.36,264 1185.3577748108842,251 C 1377.36,238 1614.43,368.6 1665.3577748108842,357 C 1716.29,345.4 1485.07,225.8 1440,193" stroke="rgba(153, 153, 153, 1)" stroke-width="2"></path></g><defs><mask id="SvgjsMask1137"><rect width="1440" height="650" fill="#ffffff"></rect></mask></defs></svg>