<svg xmlns="http://www.w3.org/2000/svg" version="1.1" xmlns:xlink="http://www.w3.org/1999/xlink" xmlns:svgjs="http://svgjs.dev/svgjs" width="1440" height="650" preserveAspectRatio="none" viewBox="0 0 1440 650"><g mask="url(&quot;#SvgjsMask1306&quot;)" fill="none"><path d="M639.33 687.46C807.21 619.93 841.6 108.01 1067.82 104.08 1294.03 100.15 1367.3 383.08 1496.3 396.58" stroke="rgba(153, 153, 153, 1)" stroke-width="2"></path><path d="M769.49 695.89C937.81 616.71 962.6 80.51 1181.22 76.11 1399.83 71.71 1463.16 382.33 1592.94 401.11" stroke="rgba(153, 153, 153, 1)" stroke-width="2"></path><path d="M337.2 772.73C503.95 772.54 652.65 689.89 998.47 685.36 1344.29 680.83 1476.43 375.02 1659.74 366.86" stroke="rgba(153, 153, 153, 1)" stroke-width="2"></path><path d="M500.71 733.61C666.41 715.01 738.64 366.77 1046.14 349.74 1353.65 332.71 1447.33 163.87 1591.58 161.24" stroke="rgba(153, 153, 153, 1)" stroke-width="2"></path><path d="M811 704.59C891.23 698.03 846.91 553.78 1085.34 535.98 1323.76 518.18 1475.81 228.74 1634.01 217.48" stroke="rgba(153, 153, 153, 1)" stroke-width="2"></path></g><defs><mask id="SvgjsMask1306"><rect width="1440" height="650" fill="#ffffff"></rect></mask></defs></svg>