<svg id="visual" viewBox="0 0 960 540" width="960" height="540" xmlns="http://www.w3.org/2000/svg" xmlns:xlink="http://www.w3.org/1999/xlink" version="1.1"><rect x="0" y="0" width="960" height="540" fill="#ffffff"></rect><defs><linearGradient id="grad1_0" x1="43.8%" y1="0%" x2="100%" y2="100%"><stop offset="14.444444444444446%" stop-color="#c3eee4" stop-opacity="1"></stop><stop offset="85.55555555555554%" stop-color="#c3eee4" stop-opacity="1"></stop></linearGradient></defs><defs><linearGradient id="grad1_1" x1="43.8%" y1="0%" x2="100%" y2="100%"><stop offset="14.444444444444446%" stop-color="#c3eee4" stop-opacity="1"></stop><stop offset="85.55555555555554%" stop-color="#ccf0e8" stop-opacity="1"></stop></linearGradient></defs><defs><linearGradient id="grad1_2" x1="43.8%" y1="0%" x2="100%" y2="100%"><stop offset="14.444444444444446%" stop-color="#d4f3ec" stop-opacity="1"></stop><stop offset="85.55555555555554%" stop-color="#ccf0e8" stop-opacity="1"></stop></linearGradient></defs><defs><linearGradient id="grad1_3" x1="43.8%" y1="0%" x2="100%" y2="100%"><stop offset="14.444444444444446%" stop-color="#d4f3ec" stop-opacity="1"></stop><stop offset="85.55555555555554%" stop-color="#ddf5ef" stop-opacity="1"></stop></linearGradient></defs><defs><linearGradient id="grad1_4" x1="43.8%" y1="0%" x2="100%" y2="100%"><stop offset="14.444444444444446%" stop-color="#e6f8f3" stop-opacity="1"></stop><stop offset="85.55555555555554%" stop-color="#ddf5ef" stop-opacity="1"></stop></linearGradient></defs><defs><linearGradient id="grad1_5" x1="43.8%" y1="0%" x2="100%" y2="100%"><stop offset="14.444444444444446%" stop-color="#e6f8f3" stop-opacity="1"></stop><stop offset="85.55555555555554%" stop-color="#eefaf7" stop-opacity="1"></stop></linearGradient></defs><defs><linearGradient id="grad1_6" x1="43.8%" y1="0%" x2="100%" y2="100%"><stop offset="14.444444444444446%" stop-color="#f7fdfb" stop-opacity="1"></stop><stop offset="85.55555555555554%" stop-color="#eefaf7" stop-opacity="1"></stop></linearGradient></defs><defs><linearGradient id="grad1_7" x1="43.8%" y1="0%" x2="100%" y2="100%"><stop offset="14.444444444444446%" stop-color="#f7fdfb" stop-opacity="1"></stop><stop offset="85.55555555555554%" stop-color="#ffffff" stop-opacity="1"></stop></linearGradient></defs><defs><linearGradient id="grad2_0" x1="0%" y1="0%" x2="56.3%" y2="100%"><stop offset="14.444444444444446%" stop-color="#c3eee4" stop-opacity="1"></stop><stop offset="85.55555555555554%" stop-color="#c3eee4" stop-opacity="1"></stop></linearGradient></defs><defs><linearGradient id="grad2_1" x1="0%" y1="0%" x2="56.3%" y2="100%"><stop offset="14.444444444444446%" stop-color="#ccf0e8" stop-opacity="1"></stop><stop offset="85.55555555555554%" stop-color="#c3eee4" stop-opacity="1"></stop></linearGradient></defs><defs><linearGradient id="grad2_2" x1="0%" y1="0%" x2="56.3%" y2="100%"><stop offset="14.444444444444446%" stop-color="#ccf0e8" stop-opacity="1"></stop><stop offset="85.55555555555554%" stop-color="#d4f3ec" stop-opacity="1"></stop></linearGradient></defs><defs><linearGradient id="grad2_3" x1="0%" y1="0%" x2="56.3%" y2="100%"><stop offset="14.444444444444446%" stop-color="#ddf5ef" stop-opacity="1"></stop><stop offset="85.55555555555554%" stop-color="#d4f3ec" stop-opacity="1"></stop></linearGradient></defs><defs><linearGradient id="grad2_4" x1="0%" y1="0%" x2="56.3%" y2="100%"><stop offset="14.444444444444446%" stop-color="#ddf5ef" stop-opacity="1"></stop><stop offset="85.55555555555554%" stop-color="#e6f8f3" stop-opacity="1"></stop></linearGradient></defs><defs><linearGradient id="grad2_5" x1="0%" y1="0%" x2="56.3%" y2="100%"><stop offset="14.444444444444446%" stop-color="#eefaf7" stop-opacity="1"></stop><stop offset="85.55555555555554%" stop-color="#e6f8f3" stop-opacity="1"></stop></linearGradient></defs><defs><linearGradient id="grad2_6" x1="0%" y1="0%" x2="56.3%" y2="100%"><stop offset="14.444444444444446%" stop-color="#eefaf7" stop-opacity="1"></stop><stop offset="85.55555555555554%" stop-color="#f7fdfb" stop-opacity="1"></stop></linearGradient></defs><defs><linearGradient id="grad2_7" x1="0%" y1="0%" x2="56.3%" y2="100%"><stop offset="14.444444444444446%" stop-color="#ffffff" stop-opacity="1"></stop><stop offset="85.55555555555554%" stop-color="#f7fdfb" stop-opacity="1"></stop></linearGradient></defs><g transform="translate(960, 0)"><path d="M0 540C-18.6 513.1 -37.2 486.3 -58.9 485.4C-80.6 484.6 -105.4 509.8 -125.4 508.8C-145.4 507.8 -160.5 480.6 -174.8 461C-189.1 441.3 -202.7 429.3 -225.9 430.3C-249.1 431.4 -281.9 445.5 -305.1 441.9C-328.2 438.4 -341.6 417 -346.2 390.7C-350.7 364.4 -346.5 333.2 -357 316.3C-367.5 299.4 -392.7 296.9 -421.4 290.8C-450 284.8 -482.2 275.2 -478.1 251C-474.1 226.7 -434 187.6 -433.8 164.5C-433.7 141.5 -473.5 134.4 -480.6 118.5C-487.7 102.6 -462.1 77.9 -466.6 56.7C-471 35.4 -505.5 17.7 -540 0L0 0Z" fill="#fbfefd"></path><path d="M0 472.5C-16.3 449 -32.6 425.5 -51.6 424.8C-70.6 424 -92.3 446.1 -109.7 445.2C-127.2 444.3 -140.4 420.5 -153 403.3C-165.5 386.2 -177.3 375.6 -197.6 376.5C-217.9 377.5 -246.7 389.8 -266.9 386.7C-287.2 383.6 -298.9 364.9 -302.9 341.9C-306.9 318.9 -303.2 291.5 -312.4 276.8C-321.6 262 -343.6 259.8 -368.7 254.5C-393.8 249.2 -421.9 240.8 -418.4 219.6C-414.9 198.3 -379.8 164.2 -379.6 144C-379.5 123.8 -414.3 117.6 -420.5 103.7C-426.8 89.7 -404.4 68.1 -408.3 49.6C-412.1 31 -442.3 15.5 -472.5 0L0 0Z" fill="#f2fbf9"></path><path d="M0 405C-14 384.9 -27.9 364.7 -44.2 364.1C-60.5 363.4 -79.1 382.3 -94.1 381.6C-109 380.8 -120.4 360.4 -131.1 345.7C-141.9 331 -152 322 -169.4 322.7C-186.8 323.5 -211.4 334.2 -228.8 331.5C-246.1 328.8 -256.2 312.8 -259.6 293C-263.1 273.3 -259.9 249.9 -267.8 237.2C-275.6 224.6 -294.5 222.7 -316 218.1C-337.5 213.6 -361.6 206.4 -358.6 188.2C-355.6 170 -325.5 140.7 -325.4 123.4C-325.3 106.1 -355.1 100.8 -360.5 88.8C-365.8 76.9 -346.6 58.4 -349.9 42.5C-353.3 26.6 -379.1 13.3 -405 0L0 0Z" fill="#eaf9f5"></path><path d="M0 337.5C-11.6 320.7 -23.3 303.9 -36.8 303.4C-50.4 302.9 -65.9 318.6 -78.4 318C-90.9 317.4 -100.3 300.4 -109.3 288.1C-118.2 275.8 -126.7 268.3 -141.2 269C-155.7 269.6 -176.2 278.5 -190.7 276.2C-205.1 274 -213.5 260.6 -216.3 244.2C-219.2 227.8 -216.6 208.2 -223.1 197.7C-229.7 187.1 -245.4 185.6 -263.4 181.8C-281.3 178 -301.3 172 -298.8 156.8C-296.3 141.7 -271.3 117.3 -271.2 102.8C-271.1 88.4 -295.9 84 -300.4 74C-304.8 64.1 -288.8 48.7 -291.6 35.4C-294.4 22.2 -315.9 11.1 -337.5 0L0 0Z" fill="#e1f7f1"></path><path d="M0 270C-9.3 256.6 -18.6 243.1 -29.5 242.7C-40.3 242.3 -52.7 254.9 -62.7 254.4C-72.7 253.9 -80.2 240.3 -87.4 230.5C-94.6 220.7 -101.3 214.6 -112.9 215.2C-124.5 215.7 -141 222.8 -152.5 221C-164.1 219.2 -170.8 208.5 -173.1 195.4C-175.4 182.2 -173.3 166.6 -178.5 158.2C-183.8 149.7 -196.4 148.4 -210.7 145.4C-225 142.4 -241.1 137.6 -239.1 125.5C-237.1 113.3 -217 93.8 -216.9 82.3C-216.8 70.7 -236.8 67.2 -240.3 59.2C-243.9 51.3 -231.1 38.9 -233.3 28.3C-235.5 17.7 -252.8 8.9 -270 0L0 0Z" fill="#d9f4ee"></path><path d="M0 202.5C-7 192.4 -14 182.4 -22.1 182C-30.2 181.7 -39.5 191.2 -47 190.8C-54.5 190.4 -60.2 180.2 -65.6 172.9C-70.9 165.5 -76 161 -84.7 161.4C-93.4 161.8 -105.7 167.1 -114.4 165.7C-123.1 164.4 -128.1 156.4 -129.8 146.5C-131.5 136.7 -130 124.9 -133.9 118.6C-137.8 112.3 -147.3 111.3 -158 109.1C-168.8 106.8 -180.8 103.2 -179.3 94.1C-177.8 85 -162.8 70.4 -162.7 61.7C-162.6 53 -177.6 50.4 -180.2 44.4C-182.9 38.5 -173.3 29.2 -175 21.2C-176.6 13.3 -189.6 6.6 -202.5 0L0 0Z" fill="#d0f2ea"></path><path d="M0 135C-4.7 128.3 -9.3 121.6 -14.7 121.4C-20.2 121.1 -26.4 127.4 -31.4 127.2C-36.3 126.9 -40.1 120.1 -43.7 115.2C-47.3 110.3 -50.7 107.3 -56.5 107.6C-62.3 107.8 -70.5 111.4 -76.3 110.5C-82 109.6 -85.4 104.3 -86.5 97.7C-87.7 91.1 -86.6 83.3 -89.3 79.1C-91.9 74.9 -98.2 74.2 -105.3 72.7C-112.5 71.2 -120.5 68.8 -119.5 62.7C-118.5 56.7 -108.5 46.9 -108.5 41.1C-108.4 35.4 -118.4 33.6 -120.2 29.6C-121.9 25.6 -115.5 19.5 -116.6 14.2C-117.8 8.9 -126.4 4.4 -135 0L0 0Z" fill="#c7efe6"></path><path d="M0 67.5C-2.3 64.1 -4.7 60.8 -7.4 60.7C-10.1 60.6 -13.2 63.7 -15.7 63.6C-18.2 63.5 -20.1 60.1 -21.9 57.6C-23.6 55.2 -25.3 53.7 -28.2 53.8C-31.1 53.9 -35.2 55.7 -38.1 55.2C-41 54.8 -42.7 52.1 -43.3 48.8C-43.8 45.6 -43.3 41.6 -44.6 39.5C-45.9 37.4 -49.1 37.1 -52.7 36.4C-56.3 35.6 -60.3 34.4 -59.8 31.4C-59.3 28.3 -54.3 23.5 -54.2 20.6C-54.2 17.7 -59.2 16.8 -60.1 14.8C-61 12.8 -57.8 9.7 -58.3 7.1C-58.9 4.4 -63.2 2.2 -67.5 0L0 0Z" fill="#c3eee4"></path></g><g transform="translate(0, 540)"><path d="M0 -540C18.1 -503.1 36.1 -466.1 55.8 -459.6C75.5 -453.1 96.9 -477 121.6 -493.2C146.3 -509.4 174.3 -517.9 191.5 -504.9C208.7 -491.9 215 -457.4 233.8 -445.4C252.5 -433.4 283.6 -443.9 295.4 -428C307.1 -412 299.5 -369.4 311 -351.1C322.5 -332.7 353.1 -338.4 373.5 -330.9C393.9 -323.4 404 -302.5 405.7 -280.1C407.5 -257.6 401 -233.5 418.8 -219.8C436.7 -206.1 478.9 -202.8 495.6 -187.9C512.2 -173.1 503.3 -146.6 503.9 -124.2C504.5 -101.8 514.6 -83.4 522.2 -63.4C529.8 -43.4 534.9 -21.7 540 0L0 0Z" fill="#fbfefd"></path><path d="M0 -472.5C15.8 -440.2 31.6 -407.9 48.8 -402.2C66.1 -396.5 84.8 -417.4 106.4 -431.6C128 -445.8 152.5 -453.2 167.6 -441.8C182.6 -430.4 188.1 -400.2 204.5 -389.7C220.9 -379.2 248.2 -388.4 258.5 -374.5C268.8 -360.5 262.1 -323.3 272.1 -307.2C282.2 -291.1 309 -296.1 326.8 -289.5C344.6 -282.9 353.5 -264.7 355 -245C356.6 -225.4 350.9 -204.3 366.5 -192.3C382.1 -180.4 419 -177.5 433.6 -164.4C448.2 -151.4 440.4 -128.3 440.9 -108.7C441.4 -89.1 450.3 -73 456.9 -55.5C463.5 -38 468 -19 472.5 0L0 0Z" fill="#f2fbf9"></path><path d="M0 -405C13.5 -377.3 27.1 -349.6 41.9 -344.7C56.6 -339.8 72.7 -357.8 91.2 -369.9C109.7 -382.1 130.7 -388.4 143.6 -378.7C156.5 -368.9 161.3 -343 175.3 -334C189.4 -325 212.7 -333 221.5 -321C230.4 -309 224.6 -277.1 233.3 -263.3C241.9 -249.5 264.9 -253.8 280.1 -248.2C295.4 -242.5 303 -226.9 304.3 -210C305.6 -193.2 300.7 -175.1 314.1 -164.9C327.5 -154.6 359.2 -152.1 371.7 -141C384.2 -129.8 377.5 -110 377.9 -93.2C378.4 -76.3 385.9 -62.6 391.6 -47.6C397.3 -32.5 401.2 -16.3 405 0L0 0Z" fill="#eaf9f5"></path><path d="M0 -337.5C11.3 -314.4 22.6 -291.3 34.9 -287.3C47.2 -283.2 60.5 -298.1 76 -308.3C91.4 -318.4 108.9 -323.7 119.7 -315.6C130.4 -307.4 134.4 -285.9 146.1 -278.4C157.8 -270.9 177.3 -277.5 184.6 -267.5C192 -257.5 187.2 -230.9 194.4 -219.4C201.6 -207.9 220.7 -211.5 233.4 -206.8C246.2 -202.1 252.5 -189.1 253.6 -175C254.7 -161 250.6 -145.9 261.8 -137.4C272.9 -128.8 299.3 -126.8 309.7 -117.5C320.1 -108.2 314.6 -91.6 314.9 -77.6C315.3 -63.6 321.6 -52.1 326.4 -39.6C331.1 -27.1 334.3 -13.6 337.5 0L0 0Z" fill="#e1f7f1"></path><path d="M0 -270C9 -251.5 18.1 -233.1 27.9 -229.8C37.8 -226.6 48.4 -238.5 60.8 -246.6C73.1 -254.7 87.2 -259 95.7 -252.5C104.3 -245.9 107.5 -228.7 116.9 -222.7C126.2 -216.7 141.8 -222 147.7 -214C153.6 -206 149.8 -184.7 155.5 -175.5C161.3 -166.3 176.6 -169.2 186.8 -165.4C196.9 -161.7 202 -151.3 202.9 -140C203.8 -128.8 200.5 -116.8 209.4 -109.9C218.3 -103.1 239.4 -101.4 247.8 -94C256.1 -86.5 251.7 -73.3 252 -62.1C252.3 -50.9 257.3 -41.7 261.1 -31.7C264.9 -21.7 267.4 -10.8 270 0L0 0Z" fill="#d9f4ee"></path><path d="M0 -202.5C6.8 -188.6 13.5 -174.8 20.9 -172.4C28.3 -169.9 36.3 -178.9 45.6 -185C54.9 -191 65.4 -194.2 71.8 -189.3C78.3 -184.5 80.6 -171.5 87.7 -167C94.7 -162.5 106.4 -166.5 110.8 -160.5C115.2 -154.5 112.3 -138.5 116.6 -131.6C120.9 -124.8 132.4 -126.9 140.1 -124.1C147.7 -121.3 151.5 -113.4 152.1 -105C152.8 -96.6 150.4 -87.6 157.1 -82.4C163.8 -77.3 179.6 -76.1 185.8 -70.5C192.1 -64.9 188.7 -55 189 -46.6C189.2 -38.2 193 -31.3 195.8 -23.8C198.7 -16.3 200.6 -8.1 202.5 0L0 0Z" fill="#d0f2ea"></path><path d="M0 -135C4.5 -125.8 9 -116.5 14 -114.9C18.9 -113.3 24.2 -119.3 30.4 -123.3C36.6 -127.4 43.6 -129.5 47.9 -126.2C52.2 -123 53.8 -114.3 58.4 -111.3C63.1 -108.3 70.9 -111 73.8 -107C76.8 -103 74.9 -92.4 77.8 -87.8C80.6 -83.2 88.3 -84.6 93.4 -82.7C98.5 -80.8 101 -75.6 101.4 -70C101.9 -64.4 100.2 -58.4 104.7 -55C109.2 -51.5 119.7 -50.7 123.9 -47C128.1 -43.3 125.8 -36.7 126 -31.1C126.1 -25.4 128.6 -20.9 130.5 -15.9C132.4 -10.8 133.7 -5.4 135 0L0 0Z" fill="#c7efe6"></path><path d="M0 -67.5C2.3 -62.9 4.5 -58.3 7 -57.5C9.4 -56.6 12.1 -59.6 15.2 -61.7C18.3 -63.7 21.8 -64.7 23.9 -63.1C26.1 -61.5 26.9 -57.2 29.2 -55.7C31.6 -54.2 35.5 -55.5 36.9 -53.5C38.4 -51.5 37.4 -46.2 38.9 -43.9C40.3 -41.6 44.1 -42.3 46.7 -41.4C49.2 -40.4 50.5 -37.8 50.7 -35C50.9 -32.2 50.1 -29.2 52.4 -27.5C54.6 -25.8 59.9 -25.4 61.9 -23.5C64 -21.6 62.9 -18.3 63 -15.5C63.1 -12.7 64.3 -10.4 65.3 -7.9C66.2 -5.4 66.9 -2.7 67.5 0L0 0Z" fill="#c3eee4"></path></g></svg>