<svg id="visual" viewBox="0 0 1440 810" width="1440" height="810" xmlns="http://www.w3.org/2000/svg" xmlns:xlink="http://www.w3.org/1999/xlink" version="1.1"><rect x="0" y="0" width="1440" height="810" fill="#FFFFFF"></rect><path d="M313 0L754 31L95 62L512 93L111 125L508 156L207 187L413 218L547 249L126 280L801 312L386 343L921 374L586 405L226 436L554 467L495 498L476 530L151 561L414 592L231 623L378 654L921 685L520 717L416 748L553 779L769 810" fill="none" stroke-linecap="square" stroke-linejoin="bevel" stroke="#c3eee4" stroke-width="90"></path></svg>